<?xml version="1.0" encoding="UTF-8" standalone="no"?>
<!-- Created with Inkscape (http://www.inkscape.org/) -->

<svg
   width="1280"
   height="512"
   viewBox="0 0 338.66665 135.46667"
   version="1.1"
   id="svg5"
   inkscape:version="1.1.2 (0a00cf5339, 2022-02-04)"
   sodipodi:docname="beedule-title.svg"
   inkscape:export-filename="/volshare/dev/beedule-learn/static/images/beedule-title.png"
   inkscape:export-xdpi="96"
   inkscape:export-ydpi="96"
   xmlns:inkscape="http://www.inkscape.org/namespaces/inkscape"
   xmlns:sodipodi="http://sodipodi.sourceforge.net/DTD/sodipodi-0.dtd"
   xmlns="http://www.w3.org/2000/svg"
   xmlns:svg="http://www.w3.org/2000/svg">
  <sodipodi:namedview
     id="namedview7"
     pagecolor="#ffffff"
     bordercolor="#666666"
     borderopacity="1.0"
     inkscape:pageshadow="2"
     inkscape:pageopacity="0.0"
     inkscape:pagecheckerboard="0"
     inkscape:document-units="mm"
     showgrid="false"
     units="px"
     width="960px"
     inkscape:zoom="0.64052329"
     inkscape:cx="533.15782"
     inkscape:cy="560.47923"
     inkscape:window-width="1920"
     inkscape:window-height="1115"
     inkscape:window-x="0"
     inkscape:window-y="0"
     inkscape:window-maximized="1"
     inkscape:current-layer="layer1" />
  <defs
     id="defs2" />
  <g
     inkscape:label="Calque 1"
     inkscape:groupmode="layer"
     id="layer1">
    <circle
       id="circle2"
       r="20.342489"
       cy="92.300003"
       cx="35.91835"
       style="fill:#96c8ef;stroke-width:0.264583" />
    <path
       inkscape:connector-curvature="0"
       id="path4"
       d="m 56.259782,92.305297 c 0,6.459538 -3.01413,12.211313 -7.70864,15.937973 -0.53049,-0.71385 -1.04881,-1.44965 -1.55072,-2.21271 -6.06451,-9.222848 -9.46097,-21.270915 -9.60437,-34.008221 10.54364,0.758031 18.86373,9.545902 18.86373,20.282958 z"
       style="fill:#5aaae7;stroke-width:0.264583" />
    <circle
       id="circle6"
       r="28.426569"
       cy="52.397667"
       cx="36.438782"
       style="fill:#c2dff6;stroke-width:0.264583" />
    <g
       transform="matrix(0.26458333,0,0,0.26458333,6.0003251,-4.2517433)"
       id="g12">
      <path
         inkscape:connector-curvature="0"
         id="path8"
         d="m 222.486,214.109 c 0,57.337 -44.915,104.179 -101.478,107.274 -1.569,-11.853 -2.372,-23.998 -2.372,-36.301 0,-49.314 12.901,-96.092 36.327,-131.717 6.692,-10.177 14.078,-19.198 22.083,-27.011 27.49,19.459 45.44,51.51 45.44,87.755 z"
         style="fill:#96c8ef" />
      <circle
         id="circle10"
         r="76.885002"
         cy="364.92001"
         cx="398.92401"
         style="fill:#96c8ef" />
    </g>
    <path
       inkscape:connector-curvature="0"
       id="path14"
       d="m 91.207532,92.305297 c 0,6.459538 3.01414,12.211313 7.70864,15.937973 0.53049,-0.71385 1.04881,-1.44965 1.550458,-2.21271 6.06451,-9.222848 9.46097,-21.270915 9.60437,-34.008221 -10.543378,0.758031 -18.863468,9.545902 -18.863468,20.282958 z"
       style="fill:#5aaae7;stroke-width:0.264583" />
    <circle
       id="circle16"
       r="28.426569"
       cy="52.397667"
       cx="111.02853"
       style="fill:#c2dff6;stroke-width:0.264583" />
    <path
       inkscape:connector-curvature="0"
       id="path18"
       d="m 82.600902,52.397929 c 0,15.170414 11.88376,27.564027 26.849388,28.382912 0.41513,-3.136106 0.62759,-6.349471 0.62759,-9.604639 0,-13.047663 -3.41339,-25.424342 -9.61152,-34.850123 -1.770848,-2.692664 -3.724798,-5.079471 -5.842788,-7.14666 -7.2734,5.148527 -12.02267,13.628687 -12.02267,23.21851 z"
       style="fill:#96c8ef;stroke-width:0.264583" />
    <path
       inkscape:connector-curvature="0"
       id="path20"
       d="m 111.55002,106.60735 c -1.11125,0 -2.01189,-0.90091 -2.01189,-2.01189 0,-1.11099 0.90064,-2.01189 2.01189,-2.01189 5.67029,0 10.2833,-4.613015 10.2833,-10.283035 0,-1.110986 0.90064,-2.011892 2.01189,-2.011892 1.11125,0 2.01189,0.900906 2.01189,2.011892 0,7.888815 -6.418,14.306815 -14.30708,14.306815 z"
       style="fill:#5aaae7;stroke-width:0.264583" />
    <g
       transform="matrix(0.26458333,0,0,0.26458333,6.0003251,-4.2517433)"
       id="g26">
      <path
         inkscape:connector-curvature="0"
         id="path22"
         d="m 38.02,221.71 c -4.2,0 -7.604,-3.405 -7.604,-7.604 0,-46.665 37.964,-84.629 84.629,-84.629 4.2,0 7.604,3.405 7.604,7.604 0,4.199 -3.404,7.604 -7.604,7.604 -38.279,0 -69.421,31.143 -69.421,69.421 0,4.2 -3.404,7.604 -7.604,7.604 z"
         style="fill:#96c8ef" />
      <path
         inkscape:connector-curvature="0"
         id="path24"
         d="m 89.727,294.463 c -0.831,0 -1.676,-0.137 -2.506,-0.427 -9.783,-3.415 -18.779,-8.556 -26.737,-15.281 -8.724,-7.373 -15.765,-16.257 -20.926,-26.406 -1.903,-3.743 -0.412,-8.321 3.332,-10.225 3.742,-1.903 8.321,-0.413 10.225,3.331 4.237,8.331 10.019,15.627 17.185,21.684 6.532,5.519 13.911,9.738 21.933,12.538 3.964,1.384 6.058,5.72 4.673,9.685 -1.094,3.137 -4.035,5.101 -7.179,5.101 z"
         style="fill:#96c8ef" />
    </g>
    <ellipse
       id="ellipse28"
       ry="43.03289"
       rx="28.297718"
       cy="71.17514"
       cx="73.733658"
       style="fill:#ffeb99;stroke-width:0.264583" />
    <path
       inkscape:connector-curvature="0"
       id="path30"
       d="m 58.606902,71.175408 c 0,-20.317883 9.25988,-37.344614 21.71171,-41.858141 -2.11323,-0.766234 -4.31774,-1.174221 -6.58522,-1.174221 -15.62814,0 -28.29719,19.266429 -28.29719,43.032626 0,23.766198 12.66931,43.032358 28.29746,43.032358 2.26747,0 4.47198,-0.40798 6.58521,-1.17422 -12.45156,-4.51379 -21.71197,-21.540519 -21.71197,-41.858402 z"
       style="fill:#ffda44;stroke-width:0.264583" />
    <g
       transform="matrix(0.26458333,0,0,0.26458333,6.0003251,-4.2517433)"
       id="g36">
      <path
         inkscape:connector-curvature="0"
         id="path32"
         d="m 151.192,252.55 h 209.617 c -3.208,-24.035 -9.902,-46.144 -19.244,-65.056 h -171.13 c -9.342,18.913 -16.035,41.022 -19.243,65.056 z"
         style="fill:#787680" />
      <path
         inkscape:connector-curvature="0"
         id="path34"
         d="m 170.435,382.664 h 171.129 c 9.342,-18.913 16.035,-41.022 19.244,-65.057 H 151.192 c 3.208,24.036 9.901,46.145 19.243,65.057 z"
         style="fill:#787680" />
    </g>
    <g
       transform="matrix(0.26458333,0,0,0.26458333,6.0003251,-4.2517433)"
       id="g42">
      <path
         inkscape:connector-curvature="0"
         id="path38"
         d="m 200.974,317.608 h -49.782 c 3.208,24.036 9.902,46.145 19.244,65.057 h 49.786 c -9.345,-18.913 -16.039,-41.02 -19.248,-65.057 z"
         style="fill:#57565c" />
      <path
         inkscape:connector-curvature="0"
         id="path40"
         d="m 170.435,187.494 c -9.342,18.913 -16.035,41.022 -19.244,65.056 h 49.782 c 3.209,-24.037 9.904,-46.145 19.248,-65.056 z"
         style="fill:#57565c" />
    </g>
    <path
       inkscape:connector-curvature="0"
       id="path44"
       d="m 21.670802,30.115779 c 0.356658,0 0.718079,-0.09498 1.045104,-0.293952 2.024063,-1.233223 4.202376,-2.186516 6.475146,-2.833423 1.06865,-0.304271 1.68831,-1.417108 1.38404,-2.48576 -0.30427,-1.068653 -1.41685,-1.688042 -2.48576,-1.3843 -2.620966,0.746389 -5.133449,1.845468 -7.466809,3.267339 -0.948796,0.578115 -1.249363,1.8161 -0.671248,2.764896 0.378354,0.622036 1.041135,0.9652 1.719527,0.9652 z"
       style="stroke-width:0.264583" />
    <path
       inkscape:connector-curvature="0"
       id="path46"
       d="m 76.549882,45.355779 c 0,1.110985 0.90064,2.011892 2.01189,2.011892 h 10.32828 c 1.11125,0 2.01189,-0.900907 2.01189,-2.011892 0,-1.110985 -0.90064,-2.011892 -2.01189,-2.011892 h -10.32828 c -1.11151,0 -2.01189,0.900907 -2.01189,2.011892 z"
       style="stroke-width:0.264583" />
    <path
       inkscape:connector-curvature="0"
       id="path48"
       d="m 141.46699,52.397135 c 0,-16.784108 -13.65488,-30.438989 -30.43899,-30.438989 -8.55213,0 -16.682508,3.590395 -22.446458,9.880071 -1.03452,-0.862277 -2.10132,-1.631686 -3.19616,-2.303992 l 7.21492,-15.948554 c 0.45826,-1.012296 0.008,-2.204244 -1.00383,-2.662502 -1.01203,-0.458259 -2.20424,-0.0082 -2.66224,1.003829 l -7.14242,15.788746 c -2.58869,-1.043781 -5.29194,-1.584854 -8.05842,-1.584854 -2.76648,0 -5.46999,0.541073 -8.05841,1.584854 l -7.14243,-15.788746 c -0.45773,-1.012031 -1.64915,-1.462352 -2.66224,-1.003829 -1.01229,0.458258 -1.46209,1.649941 -1.00383,2.662502 l 7.21493,15.948554 c -1.09485,0.672306 -2.16165,1.441979 -3.19617,2.303992 -5.76368,-6.289676 -13.89433,-9.880071 -22.44646,-9.880071 -1.11125,0 -2.01189,0.900906 -2.01189,2.011891 0,1.110986 0.90064,2.011892 2.01189,2.011892 7.44538,0 14.52272,3.136107 19.5281,8.627534 -1.38853,1.493837 -2.70139,3.173147 -3.92377,5.03211 -5.55783,8.452379 -8.6188,19.651133 -8.6188,31.533835 0,11.511227 2.87258,22.380839 8.10498,30.733202 -3.32766,5.39274 -9.26253,8.72279 -15.61227,8.72279 -10.107608,0 -18.330858,-8.22325 -18.330858,-18.330601 0,-4.808273 1.820863,-9.295077 5.141913,-12.727516 2.979473,1.510241 6.246815,2.547408 9.710735,3.002227 0.0889,0.01164 0.17701,0.01746 0.26459,0.01746 0.9943,0 1.85922,-0.737393 1.99231,-1.749954 0.14446,-1.101725 -0.6313,-2.112169 -1.73302,-2.256896 C 19.885923,76.867918 10.024373,65.609104 10.024373,52.397135 c 0,-6.757987 2.550319,-13.187891 7.180791,-18.105702 0.761736,-0.809095 0.723371,-2.08227 -0.08519,-2.844006 -0.808567,-0.761471 -2.082007,-0.723635 -2.844007,0.0852 -5.3369099,5.667639 -8.2756369,13.077031 -8.2756369,20.864512 0,10.282502 5.1855689,19.537362 13.1952999,25.072975 -3.642783,4.088342 -5.632715,9.283171 -5.632715,14.830425 0,12.326411 10.028238,22.354381 22.354637,22.354381 7.17101,0 13.90783,-3.48192 18.08693,-9.21808 5.47025,6.97891 12.37958,10.78282 19.7297,10.78282 7.35014,0 14.25919,-3.80417 19.72945,-10.78282 4.1791,5.73616 10.915918,9.21808 18.086918,9.21808 1.11125,0 2.01189,-0.90091 2.01189,-2.01189 0,-1.11099 -0.90064,-2.01189 -2.01189,-2.01189 -6.35,0 -12.284598,-3.33005 -15.612268,-8.72279 5.232138,-8.352628 8.104978,-19.221976 8.104978,-30.733203 0,-11.882702 -3.06096,-23.08172 -8.618798,-31.533835 -1.22237,-1.858962 -2.5355,-3.538008 -3.92376,-5.03211 5.00539,-5.491692 12.082988,-8.627533 19.528098,-8.627533 14.56558,0 26.41521,11.849629 26.41521,26.415206 0,13.212233 -9.86182,24.471047 -22.93885,26.188722 -1.10172,0.144992 -1.87748,1.155171 -1.73303,2.256896 0.1331,1.01256 0.99801,1.749954 1.99231,1.749954 0.0876,0 0.17569,-0.0056 0.26459,-0.01746 3.46392,-0.455084 6.73126,-1.491986 9.71074,-3.002227 3.32078,3.43191 5.14191,7.918979 5.14191,12.727516 0,6.387835 -3.24512,12.215014 -8.68045,15.587924 -0.9443,0.58579 -1.23455,1.82616 -0.64876,2.77019 0.38126,0.6141 1.03849,0.95118 1.71132,0.95118 0.36222,0 0.72893,-0.0976 1.05913,-0.30269 6.62623,-4.11215 10.58228,-11.21754 10.58228,-19.006868 0,-5.547519 -1.9902,-10.741819 -5.63272,-14.830425 8.00894,-5.535348 13.19451,-14.789944 13.19451,-25.072446 z M 92.061612,100.49838 c -4.96015,7.54327 -11.46943,11.69723 -18.32795,11.69723 -6.85853,0 -13.36781,-4.15422 -18.32796,-11.69723 -0.32041,-0.48709 -0.63182,-0.984775 -0.93398,-1.491981 h 38.5244 c -0.30242,0.507736 -0.61384,1.004891 -0.93451,1.491981 z m 3.04932,-5.515499 h -42.75455 c -1.85023,-4.007644 -3.20384,-8.463757 -4.01532,-13.189215 h 50.78307 c -0.81201,4.725194 -2.16323,9.181835 -4.0132,13.189215 z m 4.907758,-23.807473 c 0,2.231496 -0.116158,4.434417 -0.340258,6.594475 h -51.89008 c -0.2241,-2.160323 -0.34025,-4.362979 -0.34025,-6.594475 0,-2.231496 0.11615,-4.434417 0.34025,-6.59474 h 51.89035 c 0.2241,2.160323 0.339988,4.363244 0.339988,6.59474 z M 48.343182,60.556885 c 0.81201,-4.724929 2.16323,-9.181835 4.0132,-13.189214 h 42.75058 c 1.85023,4.008437 3.20702,8.462962 4.01902,13.189214 z m 43.71843,-18.704718 c 0.31961,0.486039 0.62732,0.985837 0.92895,1.49172 h -38.51884 c 0.30242,-0.506941 0.61384,-1.004622 0.93398,-1.49172 4.96015,-7.543271 11.46943,-11.697229 18.32796,-11.697229 6.85852,0 13.3678,4.153958 18.32795,11.697229 z"
       style="stroke-width:0.264583" />
    <g
       transform="matrix(0.26458333,0,0,0.26458333,6.0003251,-4.2517433)"
       id="g50" />
    <g
       transform="matrix(0.26458333,0,0,0.26458333,6.0003251,-4.2517433)"
       id="g52" />
    <g
       transform="matrix(0.26458333,0,0,0.26458333,6.0003251,-4.2517433)"
       id="g82" />
    <g
       transform="matrix(0.26458333,0,0,0.26458333,6.0003251,-4.2517433)"
       id="g56" />
    <g
       transform="matrix(0.26458333,0,0,0.26458333,6.0003251,-4.2517433)"
       id="g58" />
    <g
       transform="matrix(0.26458333,0,0,0.26458333,6.0003251,-4.2517433)"
       id="g60" />
    <g
       transform="matrix(0.26458333,0,0,0.26458333,6.0003251,-4.2517433)"
       id="g62" />
    <g
       transform="matrix(0.26458333,0,0,0.26458333,6.0003251,-4.2517433)"
       id="g64" />
    <g
       transform="matrix(0.26458333,0,0,0.26458333,6.0003251,-4.2517433)"
       id="g66" />
    <g
       transform="matrix(0.26458333,0,0,0.26458333,6.0003251,-4.2517433)"
       id="g68" />
    <g
       transform="matrix(0.26458333,0,0,0.26458333,6.0003251,-4.2517433)"
       id="g70" />
    <g
       transform="matrix(0.26458333,0,0,0.26458333,6.0003251,-4.2517433)"
       id="g72" />
    <g
       transform="matrix(0.26458333,0,0,0.26458333,6.0003251,-4.2517433)"
       id="g74" />
    <g
       transform="matrix(0.26458333,0,0,0.26458333,6.0003251,-4.2517433)"
       id="g76" />
    <g
       transform="matrix(0.26458333,0,0,0.26458333,6.0003251,-4.2517433)"
       id="g78" />
    <g
       inkscape:export-ydpi="96"
       inkscape:export-xdpi="96"
       style="fill:#ff0000"
       transform="matrix(0,-0.13479028,0.13479028,0,68.769242,131.75387)"
       id="g3854">
      <path
         style="fill:#ff0000"
         inkscape:connector-curvature="0"
         d="M 15.5,23.2 C 15.1,23.2 15,23 15.2,22.7 L 17.3,20 c 0.2,-0.3 0.7,-0.5 1.1,-0.5 h 35.7 c 0.4,0 0.5,0.3 0.3,0.6 l -1.7,2.6 c -0.2,0.3 -0.7,0.6 -1,0.6 z M 0.4,32.4 C 0,32.4 -0.1,32.2 0.1,31.9 l 2.1,-2.7 c 0.2,-0.3 0.7,-0.5 1.1,-0.5 h 45.6 c 0.4,0 0.6,0.3 0.5,0.6 l -0.8,2.4 c -0.1,0.4 -0.5,0.6 -0.9,0.6 z m 24.2,9.2 c -0.4,0 -0.5,-0.3 -0.3,-0.6 l 1.4,-2.5 c 0.2,-0.3 0.6,-0.6 1,-0.6 h 20 c 0.4,0 0.6,0.3 0.6,0.7 L 47.1,41 c 0,0.4 -0.4,0.7 -0.7,0.7 z M 128.4,21.4 c -6.3,1.6 -10.6,2.8 -16.8,4.4 -1.5,0.4 -1.6,0.5 -2.9,-1 -1.5,-1.7 -2.6,-2.8 -4.7,-3.8 -6.3,-3.1 -12.4,-2.2 -18.1,1.5 -6.8,4.4 -10.3,10.9 -10.2,19 0.1,8 5.6,14.6 13.5,15.7 6.8,0.9 12.5,-1.5 17,-6.6 0.9,-1.1 1.7,-2.3 2.7,-3.7 H 89.6 c -2.1,0 -2.6,-1.3 -1.9,-3 1.3,-3.1 3.7,-8.3 5.1,-10.9 0.3,-0.6 1,-1.6 2.5,-1.6 h 36.4 c -0.2,2.7 -0.2,5.4 -0.6,8.1 -1.1,7.2 -3.8,13.8 -8.2,19.6 -7.2,9.5 -16.6,15.4 -28.5,17 C 84.6,77.4 75.5,75.5 67.5,69.5 60.1,63.9 55.9,56.5 54.8,47.3 53.5,36.4 56.7,26.6 63.3,18 70.4,8.7 79.8,2.8 91.3,0.7 c 9.4,-1.7 18.4,-0.6 26.5,4.9 5.3,3.5 9.1,8.3 11.6,14.1 0.6,0.9 0.2,1.4 -1,1.7 z"
         id="path3840" />
      <path
         style="fill:#ff0000"
         inkscape:connector-curvature="0"
         d="m 161.5,76.7 c -9.1,-0.2 -17.4,-2.8 -24.4,-8.8 -5.9,-5.1 -9.6,-11.6 -10.8,-19.3 -1.8,-11.3 1.3,-21.3 8.1,-30.2 7.3,-9.6 16.1,-14.6 28,-16.7 10.2,-1.8 19.8,-0.8 28.5,5.1 7.9,5.4 12.8,12.7 14.1,22.3 1.7,13.5 -2.2,24.5 -11.5,33.9 -6.6,6.7 -14.7,10.9 -24,12.8 -2.7,0.5 -5.4,0.6 -8,0.9 z M 185.3,36.3 C 185.2,35 185.2,34 185,33 183.2,23.1 174.1,17.5 164.6,19.7 c -9.3,2.1 -15.3,8 -17.5,17.4 -1.8,7.8 2,15.7 9.2,18.9 5.5,2.4 11,2.1 16.3,-0.6 7.9,-4.1 12.2,-10.5 12.7,-19.1 z"
         id="path3842" />
    </g>
    <text
       xml:space="preserve"
       style="font-style:normal;font-variant:normal;font-weight:bold;font-stretch:normal;font-size:56.263px;line-height:1.25;font-family:sans-serif;-inkscape-font-specification:'sans-serif, Bold';font-variant-ligatures:normal;font-variant-caps:normal;font-variant-numeric:normal;font-variant-east-asian:normal;fill:#555753;fill-opacity:1;stroke:none;stroke-width:1.40658"
       x="237.62978"
       y="63.911457"
       id="text2078"
       transform="scale(0.62647544,1.5962318)"><tspan
         sodipodi:role="line"
         id="tspan2076"
         style="font-style:normal;font-variant:normal;font-weight:bold;font-stretch:normal;font-size:56.263px;font-family:sans-serif;-inkscape-font-specification:'sans-serif, Bold';font-variant-ligatures:normal;font-variant-caps:normal;font-variant-numeric:normal;font-variant-east-asian:normal;fill:#555753;stroke-width:1.40658"
         x="237.62978"
         y="63.911457">BEEDULE</tspan></text>
  </g>
</svg>
