<?xml version="1.0" encoding="UTF-8" standalone="no"?>
<svg
   xmlns:dc="http://purl.org/dc/elements/1.1/"
   xmlns:cc="http://creativecommons.org/ns#"
   xmlns:rdf="http://www.w3.org/1999/02/22-rdf-syntax-ns#"
   xmlns:svg="http://www.w3.org/2000/svg"
   xmlns="http://www.w3.org/2000/svg"
   xmlns:sodipodi="http://sodipodi.sourceforge.net/DTD/sodipodi-0.dtd"
   xmlns:inkscape="http://www.inkscape.org/namespaces/inkscape"
   inkscape:version="1.0 (4035a4fb49, 2020-05-01)"
   inkscape:export-ydpi="96"
   inkscape:export-xdpi="96"
   inkscape:export-filename="/home/billerot/go/src/github.com/pbillerot/beedule/bee/static/img/beedule.png"
   sodipodi:docname="beedule"
   xml:space="preserve"
   style="enable-background:new 0 0 512 512;"
   viewBox="0 0 512 512"
   y="0px"
   x="0px"
   id="Layer_1"
   version="1.1"><metadata
   id="metadata85"><rdf:RDF><cc:Work
       rdf:about=""><dc:format>image/svg+xml</dc:format><dc:type
         rdf:resource="http://purl.org/dc/dcmitype/StillImage" /></cc:Work></rdf:RDF></metadata><defs
   id="defs83" /><sodipodi:namedview
   inkscape:document-rotation="0"
   inkscape:current-layer="Layer_1"
   inkscape:window-maximized="0"
   inkscape:window-y="48"
   inkscape:window-x="0"
   inkscape:cy="256"
   inkscape:cx="76.489906"
   inkscape:zoom="1.4511719"
   showgrid="false"
   id="namedview81"
   inkscape:window-height="982"
   inkscape:window-width="1554"
   inkscape:pageshadow="2"
   inkscape:pageopacity="0"
   guidetolerance="10"
   gridtolerance="10"
   objecttolerance="10"
   borderopacity="1"
   bordercolor="#666666"
   pagecolor="#ffffff" />
<circle
   id="circle2"
   r="76.885002"
   cy="336.92001"
   cx="113.076"
   style="fill:#96c8ef" />
<path
   inkscape:connector-curvature="0"
   id="path4"
   d="m 189.957,336.94 c 0,24.414 -11.392,46.153 -29.135,60.238 -2.005,-2.698 -3.964,-5.479 -5.861,-8.363 -22.921,-34.858 -35.758,-80.394 -36.3,-128.535 39.85,2.865 71.296,36.079 71.296,76.66 z"
   style="fill:#5aaae7" />
<circle
   id="circle6"
   r="107.439"
   cy="186.108"
   cx="115.043"
   style="fill:#c2dff6" />
<g
   transform="translate(0,-28)"
   id="g12">
	<path
   inkscape:connector-curvature="0"
   id="path8"
   d="m 222.486,214.109 c 0,57.337 -44.915,104.179 -101.478,107.274 -1.569,-11.853 -2.372,-23.998 -2.372,-36.301 0,-49.314 12.901,-96.092 36.327,-131.717 6.692,-10.177 14.078,-19.198 22.083,-27.011 27.49,19.459 45.44,51.51 45.44,87.755 z"
   style="fill:#96c8ef" />
	<circle
   id="circle10"
   r="76.885002"
   cy="364.92001"
   cx="398.92401"
   style="fill:#96c8ef" />
</g>
<path
   inkscape:connector-curvature="0"
   id="path14"
   d="m 322.043,336.94 c 0,24.414 11.392,46.153 29.135,60.238 2.005,-2.698 3.964,-5.479 5.86,-8.363 22.921,-34.858 35.758,-80.394 36.3,-128.535 -39.849,2.865 -71.295,36.079 -71.295,76.66 z"
   style="fill:#5aaae7" />
<circle
   id="circle16"
   r="107.439"
   cy="186.108"
   cx="396.957"
   style="fill:#c2dff6" />
<path
   inkscape:connector-curvature="0"
   id="path18"
   d="m 289.514,186.109 c 0,57.337 44.915,104.179 101.478,107.274 1.569,-11.853 2.372,-23.998 2.372,-36.301 0,-49.314 -12.901,-96.092 -36.327,-131.717 -6.693,-10.177 -14.078,-19.198 -22.083,-27.011 -27.49,19.459 -45.44,51.51 -45.44,87.755 z"
   style="fill:#96c8ef" />
<path
   inkscape:connector-curvature="0"
   id="path20"
   d="m 398.928,390.995 c -4.2,0 -7.604,-3.405 -7.604,-7.604 0,-4.199 3.404,-7.604 7.604,-7.604 21.431,0 38.866,-17.435 38.866,-38.865 0,-4.199 3.404,-7.604 7.604,-7.604 4.2,0 7.604,3.405 7.604,7.604 0,29.816 -24.257,54.073 -54.074,54.073 z"
   style="fill:#5aaae7" />
<g
   transform="translate(0,-28)"
   id="g26">
	<path
   inkscape:connector-curvature="0"
   id="path22"
   d="m 38.02,221.71 c -4.2,0 -7.604,-3.405 -7.604,-7.604 0,-46.665 37.964,-84.629 84.629,-84.629 4.2,0 7.604,3.405 7.604,7.604 0,4.199 -3.404,7.604 -7.604,7.604 -38.279,0 -69.421,31.143 -69.421,69.421 0,4.2 -3.404,7.604 -7.604,7.604 z"
   style="fill:#96c8ef" />
	<path
   inkscape:connector-curvature="0"
   id="path24"
   d="m 89.727,294.463 c -0.831,0 -1.676,-0.137 -2.506,-0.427 -9.783,-3.415 -18.779,-8.556 -26.737,-15.281 -8.724,-7.373 -15.765,-16.257 -20.926,-26.406 -1.903,-3.743 -0.412,-8.321 3.332,-10.225 3.742,-1.903 8.321,-0.413 10.225,3.331 4.237,8.331 10.019,15.627 17.185,21.684 6.532,5.519 13.911,9.738 21.933,12.538 3.964,1.384 6.058,5.72 4.673,9.685 -1.094,3.137 -4.035,5.101 -7.179,5.101 z"
   style="fill:#96c8ef" />
</g>
<ellipse
   id="ellipse28"
   ry="162.644"
   rx="106.952"
   cy="257.078"
   cx="256"
   style="fill:#ffeb99" />
<path
   inkscape:connector-curvature="0"
   id="path30"
   d="m 198.828,257.079 c 0,-76.792 34.998,-141.145 82.06,-158.204 -7.987,-2.896 -16.319,-4.438 -24.889,-4.438 -59.067,0 -106.95,72.818 -106.95,162.643 0,89.825 47.884,162.642 106.951,162.642 8.57,0 16.902,-1.542 24.889,-4.438 -47.061,-17.06 -82.061,-81.413 -82.061,-158.205 z"
   style="fill:#ffda44" />
<g
   transform="translate(0,-28)"
   id="g36">
	<path
   inkscape:connector-curvature="0"
   id="path32"
   d="m 151.192,252.55 h 209.617 c -3.208,-24.035 -9.902,-46.144 -19.244,-65.056 h -171.13 c -9.342,18.913 -16.035,41.022 -19.243,65.056 z"
   style="fill:#787680" />
	<path
   inkscape:connector-curvature="0"
   id="path34"
   d="m 170.435,382.664 h 171.129 c 9.342,-18.913 16.035,-41.022 19.244,-65.057 H 151.192 c 3.208,24.036 9.901,46.145 19.243,65.057 z"
   style="fill:#787680" />
</g>
<g
   transform="translate(0,-28)"
   id="g42">
	<path
   inkscape:connector-curvature="0"
   id="path38"
   d="m 200.974,317.608 h -49.782 c 3.208,24.036 9.902,46.145 19.244,65.057 h 49.786 c -9.345,-18.913 -16.039,-41.02 -19.248,-65.057 z"
   style="fill:#57565c" />
	<path
   inkscape:connector-curvature="0"
   id="path40"
   d="m 170.435,187.494 c -9.342,18.913 -16.035,41.022 -19.244,65.056 h 49.782 c 3.209,-24.037 9.904,-46.145 19.248,-65.056 z"
   style="fill:#57565c" />
</g>
<path
   inkscape:connector-curvature="0"
   id="path44"
   d="m 59.227,101.893 c 1.348,0 2.714,-0.359 3.95,-1.111 7.65,-4.661 15.883,-8.264 24.473,-10.709 4.039,-1.15 6.381,-5.356 5.231,-9.395 -1.15,-4.039 -5.355,-6.38 -9.395,-5.232 -9.906,2.821 -19.402,6.975 -28.221,12.349 -3.586,2.185 -4.722,6.864 -2.537,10.45 1.43,2.351 3.935,3.648 6.499,3.648 z" />
<path
   inkscape:connector-curvature="0"
   id="path46"
   d="m 266.644,159.493 c 0,4.199 3.404,7.604 7.604,7.604 h 39.036 c 4.2,0 7.604,-3.405 7.604,-7.604 0,-4.199 -3.404,-7.604 -7.604,-7.604 h -39.036 c -4.201,0 -7.604,3.405 -7.604,7.604 z" />
<path
   inkscape:connector-curvature="0"
   id="path48"
   d="M 512,186.106 C 512,122.67 460.391,71.061 396.955,71.061 c -32.323,0 -63.052,13.57 -84.837,37.342 -3.91,-3.259 -7.942,-6.167 -12.08,-8.708 l 27.269,-60.278 c 1.732,-3.826 0.032,-8.331 -3.794,-10.063 -3.825,-1.732 -8.331,-0.031 -10.062,3.794 l -26.995,59.674 c -9.784,-3.945 -20.001,-5.99 -30.457,-5.99 -10.456,0 -20.674,2.045 -30.457,5.99 L 198.547,33.148 c -1.73,-3.825 -6.233,-5.527 -10.062,-3.794 -3.826,1.732 -5.526,6.236 -3.794,10.063 l 27.269,60.278 c -4.138,2.541 -8.17,5.45 -12.08,8.708 -21.784,-23.772 -52.514,-37.342 -84.837,-37.342 -4.2,0 -7.604,3.405 -7.604,7.604 0,4.199 3.404,7.604 7.604,7.604 28.14,0 54.889,11.853 73.807,32.608 -5.248,5.646 -10.21,11.993 -14.83,19.019 -21.006,31.946 -32.575,74.272 -32.575,119.183 0,43.507 10.857,84.589 30.633,116.157 -12.577,20.382 -35.008,32.968 -59.007,32.968 -38.202,0 -69.282,-31.08 -69.282,-69.281 0,-18.173 6.882,-35.131 19.434,-48.104 11.261,5.708 23.61,9.628 36.702,11.347 0.336,0.044 0.669,0.066 1,0.066 3.758,0 7.027,-2.787 7.53,-6.614 0.546,-4.164 -2.386,-7.983 -6.55,-8.53 -49.424,-6.494 -86.696,-49.047 -86.696,-98.982 0,-25.542 9.639,-49.844 27.14,-68.431 2.879,-3.058 2.734,-7.87 -0.322,-10.749 -3.056,-2.878 -7.869,-2.735 -10.749,0.322 C 11.107,128.669 0,156.673 0,186.106 c 0,38.863 19.599,73.842 49.872,94.764 -13.768,15.452 -21.289,35.086 -21.289,56.052 0,46.588 37.902,84.489 84.49,84.489 27.103,0 52.565,-13.16 68.36,-34.84 20.675,26.377 46.789,40.754 74.569,40.754 27.78,0 53.893,-14.378 74.568,-40.754 15.795,21.68 41.257,34.84 68.36,34.84 4.2,0 7.604,-3.405 7.604,-7.604 0,-4.199 -3.404,-7.604 -7.604,-7.604 -24,0 -46.43,-12.586 -59.007,-32.968 19.775,-31.569 30.633,-72.65 30.633,-116.157 0,-44.911 -11.569,-87.238 -32.575,-119.183 -4.62,-7.026 -9.583,-13.372 -14.83,-19.019 18.918,-20.756 45.668,-32.608 73.807,-32.608 55.051,0 99.837,44.786 99.837,99.837 0,49.936 -37.273,92.489 -86.698,98.981 -4.164,0.548 -7.096,4.366 -6.55,8.53 0.503,3.827 3.772,6.614 7.53,6.614 0.331,0 0.664,-0.021 1,-0.066 13.092,-1.72 25.441,-5.639 36.702,-11.347 12.551,12.971 19.434,29.93 19.434,48.104 0,24.143 -12.265,46.167 -32.808,58.915 -3.569,2.214 -4.666,6.902 -2.452,10.47 1.441,2.321 3.925,3.595 6.468,3.595 1.369,0 2.755,-0.369 4.003,-1.144 25.044,-15.542 39.996,-42.397 39.996,-71.837 0,-20.967 -7.522,-40.599 -21.289,-56.052 C 492.401,259.947 512,224.969 512,186.106 Z m -186.729,181.8 c -18.747,28.51 -43.349,44.21 -69.271,44.21 -25.922,0 -50.524,-15.701 -69.271,-44.21 -1.211,-1.841 -2.388,-3.722 -3.53,-5.639 h 145.604 c -1.143,1.919 -2.32,3.798 -3.532,5.639 z M 336.796,347.06 H 175.204 c -6.993,-15.147 -12.109,-31.989 -15.176,-49.849 h 191.936 c -3.069,17.859 -8.176,34.703 -15.168,49.849 z m 18.549,-89.981 c 0,8.434 -0.439,16.76 -1.286,24.924 h -196.12 c -0.847,-8.165 -1.286,-16.49 -1.286,-24.924 0,-8.434 0.439,-16.76 1.286,-24.925 H 354.06 c 0.847,8.165 1.285,16.491 1.285,24.925 z M 160.036,216.946 c 3.069,-17.858 8.176,-34.703 15.168,-49.849 h 161.577 c 6.993,15.15 12.121,31.986 15.19,49.849 z m 165.235,-70.695 c 1.208,1.837 2.371,3.726 3.511,5.638 H 183.199 c 1.143,-1.916 2.32,-3.797 3.53,-5.638 18.747,-28.51 43.349,-44.21 69.271,-44.21 25.922,0 50.524,15.7 69.271,44.21 z" />
<g
   transform="translate(0,-28)"
   id="g50">
</g>
<g
   transform="translate(0,-28)"
   id="g52">
</g>
<g
   transform="translate(0,-28)"
   id="g54">
</g>
<g
   transform="translate(0,-28)"
   id="g56">
</g>
<g
   transform="translate(0,-28)"
   id="g58">
</g>
<g
   transform="translate(0,-28)"
   id="g60">
</g>
<g
   transform="translate(0,-28)"
   id="g62">
</g>
<g
   transform="translate(0,-28)"
   id="g64">
</g>
<g
   transform="translate(0,-28)"
   id="g66">
</g>
<g
   transform="translate(0,-28)"
   id="g68">
</g>
<g
   transform="translate(0,-28)"
   id="g70">
</g>
<g
   transform="translate(0,-28)"
   id="g72">
</g>
<g
   transform="translate(0,-28)"
   id="g74">
</g>
<g
   transform="translate(0,-28)"
   id="g76">
</g>
<g
   transform="translate(0,-28)"
   id="g78">
</g>
<g
   inkscape:export-ydpi="96"
   inkscape:export-xdpi="96"
   style="fill:#ff0000"
   transform="matrix(0,-0.5094436,0.5094436,0,237.23684,486.03697)"
   id="g3854"><path
     style="fill:#ff0000"
     inkscape:connector-curvature="0"
     d="M 15.5,23.2 C 15.1,23.2 15,23 15.2,22.7 L 17.3,20 c 0.2,-0.3 0.7,-0.5 1.1,-0.5 h 35.7 c 0.4,0 0.5,0.3 0.3,0.6 l -1.7,2.6 c -0.2,0.3 -0.7,0.6 -1,0.6 z M 0.4,32.4 C 0,32.4 -0.1,32.2 0.1,31.9 l 2.1,-2.7 c 0.2,-0.3 0.7,-0.5 1.1,-0.5 h 45.6 c 0.4,0 0.6,0.3 0.5,0.6 l -0.8,2.4 c -0.1,0.4 -0.5,0.6 -0.9,0.6 z m 24.2,9.2 c -0.4,0 -0.5,-0.3 -0.3,-0.6 l 1.4,-2.5 c 0.2,-0.3 0.6,-0.6 1,-0.6 h 20 c 0.4,0 0.6,0.3 0.6,0.7 L 47.1,41 c 0,0.4 -0.4,0.7 -0.7,0.7 z M 128.4,21.4 c -6.3,1.6 -10.6,2.8 -16.8,4.4 -1.5,0.4 -1.6,0.5 -2.9,-1 -1.5,-1.7 -2.6,-2.8 -4.7,-3.8 -6.3,-3.1 -12.4,-2.2 -18.1,1.5 -6.8,4.4 -10.3,10.9 -10.2,19 0.1,8 5.6,14.6 13.5,15.7 6.8,0.9 12.5,-1.5 17,-6.6 0.9,-1.1 1.7,-2.3 2.7,-3.7 H 89.6 c -2.1,0 -2.6,-1.3 -1.9,-3 1.3,-3.1 3.7,-8.3 5.1,-10.9 0.3,-0.6 1,-1.6 2.5,-1.6 h 36.4 c -0.2,2.7 -0.2,5.4 -0.6,8.1 -1.1,7.2 -3.8,13.8 -8.2,19.6 -7.2,9.5 -16.6,15.4 -28.5,17 C 84.6,77.4 75.5,75.5 67.5,69.5 60.1,63.9 55.9,56.5 54.8,47.3 53.5,36.4 56.7,26.6 63.3,18 70.4,8.7 79.8,2.8 91.3,0.7 c 9.4,-1.7 18.4,-0.6 26.5,4.9 5.3,3.5 9.1,8.3 11.6,14.1 0.6,0.9 0.2,1.4 -1,1.7 z"
     id="path3840" /><path
     style="fill:#ff0000"
     inkscape:connector-curvature="0"
     d="m 161.5,76.7 c -9.1,-0.2 -17.4,-2.8 -24.4,-8.8 -5.9,-5.1 -9.6,-11.6 -10.8,-19.3 -1.8,-11.3 1.3,-21.3 8.1,-30.2 7.3,-9.6 16.1,-14.6 28,-16.7 10.2,-1.8 19.8,-0.8 28.5,5.1 7.9,5.4 12.8,12.7 14.1,22.3 1.7,13.5 -2.2,24.5 -11.5,33.9 -6.6,6.7 -14.7,10.9 -24,12.8 -2.7,0.5 -5.4,0.6 -8,0.9 z M 185.3,36.3 C 185.2,35 185.2,34 185,33 183.2,23.1 174.1,17.5 164.6,19.7 c -9.3,2.1 -15.3,8 -17.5,17.4 -1.8,7.8 2,15.7 9.2,18.9 5.5,2.4 11,2.1 16.3,-0.6 7.9,-4.1 12.2,-10.5 12.7,-19.1 z"
     id="path3842" /></g></svg>
